<svg width="50" height="50" viewBox="0 0 50 50" fill="none" xmlns="http://www.w3.org/2000/svg">
<path d="M50 24.975C50 11.1875 38.8 0 25 0C11.2 0 0 11.1875 0 24.975C0 32.5688 3.45 39.4125 8.85 44.0062C8.9 44.0562 8.95 44.0563 8.95 44.1063C9.4 44.4563 9.85 44.8062 10.35 45.1562C10.6 45.3062 10.8 45.5031 11.05 45.7031C15.1815 48.5043 20.0585 50.0011 25.05 50C30.0415 50.0011 34.9185 48.5043 39.05 45.7031C39.3 45.5531 39.5 45.3563 39.75 45.2031C40.2 44.8563 40.7 44.5063 41.15 44.1563C41.2 44.1063 41.25 44.1062 41.25 44.0562C46.55 39.4094 50 32.5688 50 24.975ZM25 46.8531C20.3 46.8531 16 45.3531 12.45 42.8562C12.5 42.4562 12.6 42.0594 12.7 41.6594C12.9979 40.5753 13.4349 39.5344 14 38.5625C14.55 37.6125 15.2 36.7625 16 36.0125C16.75 35.2625 17.65 34.5656 18.55 34.0156C19.5 33.4656 20.5 33.0656 21.6 32.7656C22.7086 32.4668 23.8519 32.3166 25 32.3188C28.4083 32.2946 31.6913 33.602 34.15 35.9625C35.3 37.1125 36.2 38.4625 36.85 40.0094C37.2 40.9094 37.45 41.8594 37.6 42.8562C33.9099 45.4505 29.5107 46.846 25 46.8531ZM17.35 23.7281C16.9094 22.7194 16.6879 21.6288 16.7 20.5281C16.7 19.4312 16.9 18.3312 17.35 17.3313C17.8 16.3313 18.4 15.4344 19.15 14.6844C19.9 13.9344 20.8 13.3375 21.8 12.8875C22.8 12.4375 23.9 12.2375 25 12.2375C26.15 12.2375 27.2 12.4375 28.2 12.8875C29.2 13.3375 30.1 13.9375 30.85 14.6844C31.6 15.4344 32.2 16.3344 32.65 17.3313C33.1 18.3312 33.3 19.4312 33.3 20.5281C33.3 21.6781 33.1 22.7281 32.65 23.725C32.2157 24.7102 31.6058 25.6082 30.85 26.375C30.0829 27.1297 29.185 27.7385 28.2 28.1719C26.1338 29.021 23.8162 29.021 21.75 28.1719C20.765 27.7385 19.8671 27.1297 19.1 26.375C18.3432 25.6193 17.7478 24.7209 17.35 23.7281ZM40.55 40.3094C40.55 40.2094 40.5 40.1594 40.5 40.0594C40.0082 38.4951 39.2834 37.0138 38.35 35.6656C37.4157 34.3074 36.2675 33.1096 34.95 32.1187C33.9438 31.3618 32.8532 30.7242 31.7 30.2188C32.2246 29.8726 32.7107 29.4714 33.15 29.0219C33.8954 28.2859 34.5501 27.4634 35.1 26.5719C36.2074 24.7525 36.7793 22.6578 36.75 20.5281C36.7655 18.9516 36.4592 17.3885 35.85 15.9344C35.2485 14.5332 34.3827 13.2611 33.3 12.1875C32.2189 11.1251 30.9465 10.2768 29.55 9.6875C28.0935 9.07935 26.5283 8.7742 24.95 8.79062C23.3715 8.77519 21.8063 9.08141 20.35 9.69063C18.9414 10.2787 17.666 11.145 16.6 12.2375C15.5376 13.3175 14.6894 14.5888 14.1 15.9844C13.4908 17.4385 13.1845 19.0016 13.2 20.5781C13.2 21.6781 13.35 22.7281 13.65 23.725C13.95 24.775 14.35 25.725 14.9 26.6219C15.4 27.5219 16.1 28.3219 16.85 29.0719C17.3 29.5219 17.8 29.9187 18.35 30.2687C17.1932 30.7877 16.1022 31.4423 15.1 32.2188C13.8 33.2188 12.65 34.4156 11.7 35.7156C10.7571 37.0582 10.0315 38.541 9.55 40.1094C9.5 40.2094 9.5 40.3094 9.5 40.3594C5.55 36.3625 3.1 30.9688 3.1 24.975C3.1 12.9375 12.95 3.09687 25 3.09687C37.05 3.09687 46.9 12.9375 46.9 24.975C46.8935 30.7249 44.6104 36.2382 40.55 40.3094Z" fill="#699BF7"/>
</svg>
